<?xml version="1.0" encoding="UTF-8"?>
<svg version="1.1" xmlns="http://www.w3.org/2000/svg" width="512" height="512">
<path d="M0 0 C28.55376191 -0.59414192 56.17132208 8.97681491 77.07666016 28.72509766 C88.19881299 39.64002551 95.41185302 52.12869738 102.00390625 66.12109375 C102.77355713 66.1053833 103.54320801 66.08967285 104.33618164 66.07348633 C136.48946766 65.50374212 163.40431356 70.90004337 187.41699219 93.56542969 C204.68114712 110.48961357 216.06825276 134.83478356 217.00390625 159.12109375 C217.04386719 159.94222656 217.08382813 160.76335937 217.125 161.609375 C217.84790016 190.31276368 206.77329641 215.74187397 187.19140625 236.37109375 C162.61878734 260.02367701 132.90737817 264.44312558 100.32421875 264.37988281 C97.96213677 264.38259761 95.60005563 264.38616127 93.23797607 264.39050293 C86.86200611 264.39957108 80.48610133 264.39610577 74.11013031 264.38974476 C70.11901038 264.38671123 66.12789969 264.38686613 62.13677979 264.38872528 C61.47150556 264.38903175 60.80623133 264.38933821 60.12079728 264.38965397 C58.76875225 264.3902935 57.41670723 264.39094193 56.06466222 264.39159915 C43.42551173 264.39728435 30.78639039 264.39077309 18.14724469 264.37999842 C7.33317459 264.37106456 -3.48085255 264.37261711 -14.29492188 264.38183594 C-26.89290383 264.3925707 -39.49086032 264.3967352 -52.08884621 264.39061141 C-53.43555323 264.3899744 -54.78226026 264.38934566 -56.12896729 264.38872528 C-57.12253607 264.38826245 -57.12253607 264.38826245 -58.13617694 264.38779028 C-62.77452725 264.38607293 -67.4128606 264.38905692 -72.0512085 264.39368439 C-78.3090787 264.3994923 -84.56686835 264.39539825 -90.82472992 264.38389587 C-93.11149716 264.38126764 -95.39827126 264.38198267 -97.68503571 264.3864212 C-128.02101858 264.43984127 -128.02101858 264.43984127 -142.05859375 259.49609375 C-142.80971436 259.23594482 -143.56083496 258.9757959 -144.3347168 258.70776367 C-166.53017356 250.67841772 -184.47368321 234.21973789 -194.99609375 213.12109375 C-200.81708057 200.17851816 -203.55826179 187.48737435 -203.43359375 173.30859375 C-203.42529541 172.08172852 -203.41699707 170.85486328 -203.40844727 169.59082031 C-203.04145714 149.83865405 -196.66969109 131.41025526 -183.99609375 116.12109375 C-183.31933594 115.28191406 -182.64257812 114.44273437 -181.9453125 113.578125 C-166.80294214 95.72286197 -144.32629593 84.12444807 -120.99609375 82.12109375 C-105.32519731 81.45654197 -105.32519731 81.45654197 -101.99609375 83.12109375 C-101.86074219 82.44046875 -101.72539062 81.75984375 -101.5859375 81.05859375 C-95.91948482 55.54259128 -80.1111417 32.20736326 -58.11523438 17.89746094 C-40.25309237 6.86807316 -20.95339027 0.84687757 0 0 Z " fill="#000000" transform="translate(234.99609375,183.87890625)"/>
<path d="M0 0 C29.61720318 -0.86555994 56.3001571 10.27163307 78.13671875 29.78515625 C88.3122719 39.50846259 96.38532892 51.33594909 102.19921875 64.16015625 C102.19921875 65.15015625 102.19921875 66.14015625 102.19921875 67.16015625 C103.33359375 66.99515625 104.46796875 66.83015625 105.63671875 66.66015625 C130.89139935 63.9726472 156.5013627 69.01558363 177.01171875 84.59765625 C178.41957871 85.77087288 179.81525964 86.95883859 181.19921875 88.16015625 C182.39417969 89.14048828 182.39417969 89.14048828 183.61328125 90.140625 C202.12442117 105.87222843 214.05916934 129.15366227 217.19921875 153.16015625 C218.2168168 168.08193576 218.29477972 182.97251591 213.19921875 197.16015625 C212.82539063 198.2171875 212.4515625 199.27421875 212.06640625 200.36328125 C208.05201125 210.73158622 202.55955128 221.60688553 194.19921875 229.16015625 C193.20921875 229.49015625 192.21921875 229.82015625 191.19921875 230.16015625 C187.92740875 227.18578352 185.42731815 224.14070548 182.94921875 220.47265625 C179.14609323 214.92058798 174.81271908 210.04740703 170.19921875 205.16015625 C169.26142578 204.12568359 169.26142578 204.12568359 168.3046875 203.0703125 C152.52075392 186.2894989 127.06148413 174.1191929 104.19921875 172.16015625 C102.4562376 172.19853011 100.7137295 172.26535891 98.97265625 172.35546875 C85.34209018 172.91443569 85.34209018 172.91443569 81.3359375 169.63476562 C77.96782467 165.59057175 75.65410266 160.98951278 73.32714844 156.29394531 C70.71852171 151.35901078 66.90719904 147.29726989 63.19921875 143.16015625 C62.51730469 142.39574219 61.83539063 141.63132813 61.1328125 140.84375 C39.77824123 118.23071412 8.39496574 106.85917976 -22.22583008 105.81103516 C-53.09152768 105.42607646 -82.29106399 116.45970578 -105.80078125 136.16015625 C-106.51621094 136.71703125 -107.23164063 137.27390625 -107.96875 137.84765625 C-119.71780556 147.435228 -128.17397786 160.73615468 -134.8984375 174.16015625 C-135.22118652 174.80178711 -135.54393555 175.44341797 -135.87646484 176.10449219 C-136.86222348 178.19081962 -136.86222348 178.19081962 -137.57275391 180.59863281 C-138.42516279 183.10642274 -139.20082478 185.04452995 -140.80078125 187.16015625 C-144.14783726 188.60061256 -147.44038513 188.72559439 -151.05078125 188.91015625 C-153.05047353 189.09913313 -155.04921637 189.29842894 -157.046875 189.5078125 C-158.02897949 189.60723145 -159.01108398 189.70665039 -160.02294922 189.80908203 C-171.57552469 191.26914562 -182.12906213 196.47555201 -192.44921875 201.5859375 C-195.80078125 203.16015625 -195.80078125 203.16015625 -197.80078125 203.16015625 C-205.61426768 180.55313552 -204.18840923 155.78916094 -193.9765625 134.171875 C-183.11402128 112.3925341 -164.70778942 95.76829753 -141.80957031 87.43554688 C-131.70692117 84.12737461 -122.49158934 83.01307774 -111.92578125 83.09765625 C-110.85585937 83.10216797 -109.7859375 83.10667969 -108.68359375 83.11132812 C-106.05593139 83.12305876 -103.42838587 83.13947397 -100.80078125 83.16015625 C-100.68613525 82.59312988 -100.57148926 82.02610352 -100.45336914 81.44189453 C-94.79002695 54.57120301 -77.72975334 32.05742096 -55.07861328 17.01660156 C-38.39204319 6.30482333 -19.71084359 1.12711937 0 0 Z " fill="#000000" transform="translate(262.80078125,63.83984375)"/>
</svg>
