<?xml version="1.0" encoding="UTF-8"?>
<svg version="1.1" xmlns="http://www.w3.org/2000/svg" width="512" height="512">
<path d="M0 0 C1.48372772 1.2445827 2.96303242 2.49446052 4.4375 3.75 C5.67693359 4.69746094 5.67693359 4.69746094 6.94140625 5.6640625 C11.44531925 9.4278959 14.84588136 14.1348631 18.4375 18.75 C19.04980469 19.5234375 19.66210938 20.296875 20.29296875 21.09375 C32.36544109 37.22721418 39.04092097 57.66868013 39.4375 77.75 C40.69240234 77.87955078 40.69240234 77.87955078 41.97265625 78.01171875 C64.40932543 80.72002101 82.87927477 90.26311191 97.67578125 107.33203125 C113.16970697 127.39892145 118.05179122 150.19719955 115.15625 175.17626953 C112.00019071 195.11234293 99.39483708 215.21834812 83.24609375 227.09765625 C67.06313236 238.1680329 50.36075393 243.23668938 30.73094177 243.13768005 C29.42549898 243.14306559 28.12005618 243.14845113 26.77505451 243.15399987 C23.19460774 243.16831093 19.61439394 243.16425541 16.03393519 243.15683305 C12.15589279 243.15206785 8.2778984 243.16464042 4.39987183 243.17485046 C-3.17991323 243.19197708 -10.75961517 243.1928915 -18.33941454 243.18763756 C-24.50316515 243.18358409 -30.66689134 243.18505333 -36.83064079 243.19038582 C-37.71033077 243.19113424 -38.59002075 243.19188266 -39.496368 243.19265376 C-41.28383502 243.19418535 -43.07130204 243.19572369 -44.85876905 243.19726873 C-61.59007806 243.21097089 -78.3213402 243.20557158 -95.05264812 243.19408352 C-110.3395906 243.18414766 -125.6264121 243.19710197 -140.91333593 243.22101771 C-156.63797705 243.24543163 -172.36256188 243.25501131 -188.08722156 243.24836498 C-196.9043247 243.24487862 -205.72133479 243.24706659 -214.53842354 243.26461601 C-222.04177966 243.27936646 -229.54497714 243.27993609 -237.04833025 243.2625451 C-240.87181553 243.25405716 -244.69501773 243.25183121 -248.51848793 243.26719666 C-252.6735278 243.28368722 -256.82789023 243.2688417 -260.98292542 243.25120544 C-262.17672131 243.26081045 -263.3705172 243.27041546 -264.60048872 243.28031152 C-281.78116944 243.1308891 -296.39286828 236.15342659 -308.84375 224.640625 C-320.57898735 212.66425264 -326.32541347 196.99435918 -327 180.375 C-326.51664318 163.12126324 -319.61880042 147.0836693 -307.5625 134.75 C-293.44898839 122.35247546 -278.15017013 117.31740263 -259.58203125 117.546875 C-256.5625 117.75 -256.5625 117.75 -254.5625 118.75 C-254.54832031 117.97398437 -254.53414063 117.19796875 -254.51953125 116.3984375 C-253.80965934 100.32079798 -247.57881772 85.70070087 -235.7890625 74.59375 C-222.96309606 63.97294972 -208.19040022 58.67796802 -191.5625 59.75 C-182.13308425 60.63909498 -174.00633596 63.52808202 -165.5625 67.75 C-165.40394531 66.74582031 -165.24539062 65.74164063 -165.08203125 64.70703125 C-163.55612991 55.56286789 -161.35066075 47.26526732 -157.5625 38.75 C-157.12035156 37.74324219 -156.67820313 36.73648438 -156.22265625 35.69921875 C-145.0423685 11.82109727 -124.0139636 -6.25700018 -99.57080078 -15.5390625 C-66.05321178 -27.40427271 -27.98417408 -22.23853124 0 0 Z " fill="#000000" transform="translate(396.5625,178.25)"/>
<path d="M0 0 C2.1737546 1.66292227 4.26105635 3.39334021 6.34375 5.16796875 C7.82875 6.25078125 7.82875 6.25078125 9.34375 7.35546875 C21.23905843 17.54205884 29.90487745 34.84880054 32.34375 50.16796875 C32.34375 51.15796875 32.34375 52.14796875 32.34375 53.16796875 C31.065 52.87921875 29.78625 52.59046875 28.46875 52.29296875 C27.22158203 52.02226562 27.22158203 52.02226562 25.94921875 51.74609375 C24.32126581 51.38486881 22.69763353 51.0028129 21.08203125 50.58984375 C3.85516213 46.49517197 -13.49522271 49.41059068 -28.69140625 58.2578125 C-44.46849703 68.42249944 -55.4855084 83.15826739 -59.59375 101.60546875 C-60.54934227 106.76313562 -61.11206773 111.95392626 -61.65625 117.16796875 C-62.63851562 117.1522583 -62.63851562 117.1522583 -63.640625 117.13623047 C-66.64579332 117.09431516 -69.65089984 117.06853066 -72.65625 117.04296875 C-74.20119141 117.01783203 -74.20119141 117.01783203 -75.77734375 116.9921875 C-81.82988311 116.95363629 -86.83615603 117.57496889 -92.65625 119.16796875 C-95.8515625 119.60546875 -95.8515625 119.60546875 -98.65625 119.16796875 C-110.89380355 109.04033823 -118.79290148 90.6441134 -120.65625 75.16796875 C-122.42439359 53.31876586 -118.2838833 33.1501056 -104.59375 15.60546875 C-103.30003503 14.10984451 -101.98905025 12.62887045 -100.65625 11.16796875 C-100.13933594 10.55953125 -99.62242188 9.95109375 -99.08984375 9.32421875 C-74.47933735 -17.8151868 -29.29765414 -20.2067644 0 0 Z " fill="#000000" transform="translate(186.65625,169.83203125)"/>
<path d="M0 0 C16.44071333 5.3734799 32.7309581 11.13192366 49 17 C49 21 49 21 47.27734375 23.0078125 C46.50519531 23.70648438 45.73304687 24.40515625 44.9375 25.125 C39.62320697 30.19697464 35.67827874 35.7900806 31.75 41.96484375 C30.8725764 43.33581812 29.94278178 44.67312194 29 46 C28.34 46 27.68 46 27 46 C25.3261481 43.48922216 23.77526264 40.97497198 22.25 38.375 C21.26890429 36.73449301 20.28572976 35.09522795 19.30078125 33.45703125 C18.50921631 32.13952881 18.50921631 32.13952881 17.70166016 30.79541016 C14.68478097 25.83941781 11.56025189 20.95222115 8.4375 16.0625 C7.52629395 14.63333252 7.52629395 14.63333252 6.59667969 13.17529297 C4.4206149 9.76711 2.24305881 6.36458821 0 3 C0 2.01 0 1.02 0 0 Z " fill="#000000" transform="translate(30,143)"/>
<path d="M0 0 C-1.33273622 6.5909335 -3.17660873 12.75354153 -5.4765625 19.06640625 C-5.80667328 19.98590561 -6.13678406 20.90540497 -6.47689819 21.85276794 C-7.52117453 24.75787541 -8.57294942 27.66020005 -9.625 30.5625 C-10.33904124 32.54474199 -11.05258775 34.52716227 -11.765625 36.50976562 C-13.50470549 41.34192316 -15.25051125 46.17160156 -17 51 C-17.47059845 50.596604 -17.9411969 50.19320801 -18.42605591 49.77758789 C-19.36008743 48.97695923 -19.36008743 48.97695923 -20.31298828 48.16015625 C-20.92796173 47.63301025 -21.54293518 47.10586426 -22.17654419 46.56274414 C-32.37786103 37.77850743 -32.37786103 37.77850743 -43.453125 30.15625 C-43.96359375 29.7746875 -44.4740625 29.393125 -45 29 C-45 28.34 -45 27.68 -45 27 C-42.48922216 25.3261481 -39.97497198 23.77526264 -37.375 22.25 C-35.73449301 21.26890429 -34.09522795 20.28572976 -32.45703125 19.30078125 C-31.57869629 18.77307129 -30.70036133 18.24536133 -29.79541016 17.70166016 C-24.83941781 14.68478097 -19.95222115 11.56025189 -15.0625 8.4375 C-14.10972168 7.8300293 -13.15694336 7.22255859 -12.17529297 6.59667969 C-1.8434814 0 -1.8434814 0 0 0 Z " fill="#000000" transform="translate(233,121)"/>
<path d="M0 0 C-0.27714844 1.20914063 -0.55429687 2.41828125 -0.83984375 3.6640625 C-2.83891663 12.61906496 -4.44901385 21.2229963 -4.82421875 30.41015625 C-5 33 -5 33 -6 35 C-10.424847 33.63822022 -14.3989918 31.89749493 -18.5078125 29.76953125 C-19.11454803 29.45602219 -19.72128357 29.14251312 -20.34640503 28.81950378 C-21.6265561 28.15675055 -22.90560366 27.49186191 -24.18359375 26.82495117 C-26.09611086 25.8275658 -28.01254089 24.83806093 -29.9296875 23.84960938 C-37.76250799 19.7927988 -45.42662241 15.52731411 -53 11 C-52.67 10.34 -52.34 9.68 -52 9 C-50.03970337 8.41781616 -50.03970337 8.41781616 -47.43603516 7.94677734 C-46.46477692 7.76674164 -45.49351868 7.58670593 -44.49282837 7.4012146 C-42.90696426 7.12140244 -42.90696426 7.12140244 -41.2890625 6.8359375 C-40.20998627 6.63900299 -39.13091003 6.44206848 -38.01913452 6.23916626 C-35.73159498 5.82332324 -33.44328636 5.41169261 -31.15429688 5.00390625 C-27.64547353 4.3786483 -24.13902262 3.74129553 -20.6328125 3.1015625 C-18.4141911 2.69981003 -16.19544499 2.29874549 -13.9765625 1.8984375 C-12.39677109 1.61255264 -12.39677109 1.61255264 -10.7850647 1.32089233 C-9.31872086 1.06029526 -9.31872086 1.06029526 -7.82275391 0.79443359 C-6.96195221 0.64058197 -6.10115051 0.48673035 -5.21426392 0.32821655 C-3 0 -3 0 0 0 Z " fill="#000000" transform="translate(53,202)"/>
<path d="M0 0 C1.99128414 2.98692621 2.44587839 4.4859103 3.05322266 7.93041992 C3.23325836 8.93123093 3.41329407 9.93204193 3.5987854 10.96318054 C3.78532684 12.04138565 3.97186829 13.11959076 4.1640625 14.23046875 C4.36099701 15.33602615 4.55793152 16.44158356 4.76083374 17.5806427 C5.388862 21.11512332 6.00703734 24.65124706 6.625 28.1875 C7.04883183 30.58279692 7.47330304 32.97798081 7.8984375 35.37304688 C8.9397168 41.24740596 9.97290993 47.12314439 11 53 C10.44258118 52.88275574 9.88516235 52.76551147 9.31085205 52.64471436 C6.73445443 52.10628009 4.1563381 51.57654499 1.578125 51.046875 C0.70172363 50.86237793 -0.17467773 50.67788086 -1.07763672 50.48779297 C-9.05129406 48.86066622 -16.87102063 48.22706646 -25 48 C-23.36801147 42.12289844 -20.45433086 37.10169782 -17.5 31.8125 C-16.419314 29.8574662 -15.33991154 27.9017224 -14.26171875 25.9453125 C-13.71821777 24.95950195 -13.1747168 23.97369141 -12.61474609 22.95800781 C-9.68232561 17.58618946 -6.85562426 12.15901699 -4.03515625 6.7277832 C-1.10107921 1.10107921 -1.10107921 1.10107921 0 0 Z " fill="#000000" transform="translate(164,91)"/>
<path d="M0 0 C0.99 0.33 1.98 0.66 3 1 C3.8894154 3.36669783 4.59625754 5.63002263 5.25 8.0625 C7.74881808 16.73853901 11.2226153 24.81385217 15 33 C-2.90469094 34.70348274 -21.0193827 35.26703887 -39 35 C-34.88338233 29.77078296 -30.40289783 25.74155531 -25.20703125 21.59765625 C-21.46891576 18.60172746 -17.86145624 15.45901768 -14.25 12.3125 C-13.63648682 11.77802246 -13.02297363 11.24354492 -12.39086914 10.69287109 C-11.49356079 9.91097412 -11.49356079 9.91097412 -10.578125 9.11328125 C-9.98966797 8.60490723 -9.40121094 8.0965332 -8.79492188 7.57275391 C-7.54592879 6.47835599 -6.31391361 5.36440253 -5.09570312 4.23583984 C-4.48146484 3.67719238 -3.86722656 3.11854492 -3.234375 2.54296875 C-2.41018066 1.77569458 -2.41018066 1.77569458 -1.56933594 0.99291992 C-1.05145508 0.66525635 -0.53357422 0.33759277 0 0 Z " fill="#000000" transform="translate(47,252)"/>
<path d="M0 0 C8.05963792 7.97266341 15.60663669 16.35006093 22.71875 25.17578125 C25.30163853 28.37343263 27.92713404 31.53309635 30.5625 34.6875 C31.004729 35.21730469 31.44695801 35.74710938 31.90258789 36.29296875 C32.93461421 37.529017 33.96723791 38.76456644 35 40 C34 42 34 42 30.96484375 43.04296875 C29.62367307 43.4289452 28.2811141 43.81011724 26.9375 44.1875 C18.28049556 46.73617745 10.18304783 50.22404575 2 54 C0.96635593 47.82419386 0.67188718 41.68991051 0.4375 35.4375 C0.3950415 34.35154541 0.35258301 33.26559082 0.30883789 32.14672852 C-0.07755769 21.42949885 -0.09583106 10.72243104 0 0 Z " fill="#000000" transform="translate(90,99)"/>
<path d="M0 0 C-1.4475895 3.4837349 -2.90984234 6.96112131 -4.375 10.4375 C-4.99375 11.92733398 -4.99375 11.92733398 -5.625 13.44726562 C-6.02460938 14.39150391 -6.42421875 15.33574219 -6.8359375 16.30859375 C-7.20251465 17.18314209 -7.5690918 18.05769043 -7.94677734 18.95874023 C-9 21 -9 21 -11 22 C-12.50626117 18.87797994 -14.00393243 15.75191601 -15.5 12.625 C-15.92925781 11.73554688 -16.35851562 10.84609375 -16.80078125 9.9296875 C-17.40986328 8.65351563 -17.40986328 8.65351563 -18.03125 7.3515625 C-18.40830078 6.56604004 -18.78535156 5.78051758 -19.17382812 4.97119141 C-20 3 -20 3 -20 1 C-18.54248309 0.82633841 -17.08390329 0.6616016 -15.625 0.5 C-14.81289062 0.4071875 -14.00078125 0.314375 -13.1640625 0.21875 C-8.77444979 -0.0847294 -4.3982026 -0.03885529 0 0 Z " fill="#000000" transform="translate(244,182)"/>
</svg>
