<?xml version="1.0" encoding="utf-8"?><!-- Uploaded to: SVG Repo, www.svgrepo.com, Generator: SVG Repo Mixer Tools -->
<svg fill="#000000" width="800px" height="800px" viewBox="0 0 24 24" xmlns="http://www.w3.org/2000/svg" id="rain" class="icon glyph"><path d="M21,9a4,4,0,0,1-4,4H6A3,3,0,1,1,7.08,7.21a5,5,0,0,1,9-2.09A4.08,4.08,0,0,1,17,5,4,4,0,0,1,21,9ZM19,21V17a1,1,0,0,0-2,0v4a1,1,0,0,0,2,0Zm-8,0V17a1,1,0,0,0-2,0v4a1,1,0,0,0,2,0Zm4-2V17a1,1,0,0,0-2,0v2a1,1,0,0,0,2,0ZM7,19V17a1,1,0,0,0-2,0v2a1,1,0,0,0,2,0Z"></path></svg>